<svg id="visual" viewBox="0 0 900 600" width="900" height="600" xmlns="http://www.w3.org/2000/svg" xmlns:xlink="http://www.w3.org/1999/xlink" version="1.1"><g stroke-width="1" stroke-linejoin="bevel"><path d="M418 290L497 314L488 203Z" fill="#205a7a" stroke="#205a7a"></path><path d="M488 203L367 168L418 290Z" fill="#112e42" stroke="#112e42"></path><path d="M534 422L581 363L497 314Z" fill="#081a28" stroke="#081a28"></path><path d="M497 314L614 314L488 203Z" fill="#0c2435" stroke="#0c2435"></path><path d="M581 363L614 314L497 314Z" fill="#00101c" stroke="#00101c"></path><path d="M285 229L331 332L418 290Z" fill="#15384f" stroke="#15384f"></path><path d="M436 431L534 422L497 314Z" fill="#15384f" stroke="#15384f"></path><path d="M436 431L497 314L418 290Z" fill="#081a28" stroke="#081a28"></path><path d="M331 332L436 431L418 290Z" fill="#081a28" stroke="#081a28"></path><path d="M614 314L632 178L488 203Z" fill="#112e42" stroke="#112e42"></path><path d="M488 203L433 79L367 168Z" fill="#1d4e6b" stroke="#1d4e6b"></path><path d="M507 63L433 79L488 203Z" fill="#15384f" stroke="#15384f"></path><path d="M268 71L285 229L367 168Z" fill="#081a28" stroke="#081a28"></path><path d="M367 168L285 229L418 290Z" fill="#15384f" stroke="#15384f"></path><path d="M632 178L599 116L488 203Z" fill="#277297" stroke="#277297"></path><path d="M599 116L507 63L488 203Z" fill="#19435d" stroke="#19435d"></path><path d="M708 391L680 270L614 314Z" fill="#297ea6" stroke="#297ea6"></path><path d="M614 314L680 270L632 178Z" fill="#081a28" stroke="#081a28"></path><path d="M708 391L614 314L581 363Z" fill="#297ea6" stroke="#297ea6"></path><path d="M632 178L707 106L599 116Z" fill="#297ea6" stroke="#297ea6"></path><path d="M680 270L670 185L632 178Z" fill="#112e42" stroke="#112e42"></path><path d="M331 332L305 398L436 431Z" fill="#081a28" stroke="#081a28"></path><path d="M202 413L305 398L170 337Z" fill="#297ea6" stroke="#297ea6"></path><path d="M305 398L337 490L436 431Z" fill="#1d4e6b" stroke="#1d4e6b"></path><path d="M436 431L507 538L534 422Z" fill="#081a28" stroke="#081a28"></path><path d="M507 63L405 0L433 79Z" fill="#00101c" stroke="#00101c"></path><path d="M433 79L268 71L367 168Z" fill="#0c2435" stroke="#0c2435"></path><path d="M538 0L405 0L507 63Z" fill="#246688" stroke="#246688"></path><path d="M570 0L507 63L599 116Z" fill="#1d4e6b" stroke="#1d4e6b"></path><path d="M570 0L538 0L507 63Z" fill="#15384f" stroke="#15384f"></path><path d="M611 531L581 363L534 422Z" fill="#205a7a" stroke="#205a7a"></path><path d="M706 471L708 391L581 363Z" fill="#112e42" stroke="#112e42"></path><path d="M799 161L707 106L670 185Z" fill="#297ea6" stroke="#297ea6"></path><path d="M337 490L408 529L436 431Z" fill="#246688" stroke="#246688"></path><path d="M308 0L268 71L433 79Z" fill="#112e42" stroke="#112e42"></path><path d="M671 0L570 0L599 116Z" fill="#15384f" stroke="#15384f"></path><path d="M408 529L507 538L436 431Z" fill="#00101c" stroke="#00101c"></path><path d="M799 161L670 185L680 270Z" fill="#277297" stroke="#277297"></path><path d="M670 185L707 106L632 178Z" fill="#277297" stroke="#277297"></path><path d="M507 538L611 531L534 422Z" fill="#1d4e6b" stroke="#1d4e6b"></path><path d="M268 71L171 198L285 229Z" fill="#0c2435" stroke="#0c2435"></path><path d="M170 337L305 398L331 332Z" fill="#15384f" stroke="#15384f"></path><path d="M305 398L229 491L337 490Z" fill="#277297" stroke="#277297"></path><path d="M405 0L308 0L433 79Z" fill="#112e42" stroke="#112e42"></path><path d="M268 71L182 76L171 198Z" fill="#081a28" stroke="#081a28"></path><path d="M170 337L331 332L285 229Z" fill="#00101c" stroke="#00101c"></path><path d="M171 198L170 337L285 229Z" fill="#1d4e6b" stroke="#1d4e6b"></path><path d="M784 382L779 302L708 391Z" fill="#19435d" stroke="#19435d"></path><path d="M708 391L779 302L680 270Z" fill="#277297" stroke="#277297"></path><path d="M611 531L706 471L581 363Z" fill="#15384f" stroke="#15384f"></path><path d="M770 80L671 0L707 106Z" fill="#246688" stroke="#246688"></path><path d="M707 106L671 0L599 116Z" fill="#0c2435" stroke="#0c2435"></path><path d="M337 490L387 600L408 529Z" fill="#246688" stroke="#246688"></path><path d="M202 413L229 491L305 398Z" fill="#277297" stroke="#277297"></path><path d="M108 467L229 491L202 413Z" fill="#0c2435" stroke="#0c2435"></path><path d="M706 471L784 382L708 391Z" fill="#0c2435" stroke="#0c2435"></path><path d="M408 529L485 600L507 538Z" fill="#112e42" stroke="#112e42"></path><path d="M507 538L621 600L611 531Z" fill="#19435d" stroke="#19435d"></path><path d="M387 600L485 600L408 529Z" fill="#297ea6" stroke="#297ea6"></path><path d="M237 0L182 76L268 71Z" fill="#00101c" stroke="#00101c"></path><path d="M779 302L799 161L680 270Z" fill="#0c2435" stroke="#0c2435"></path><path d="M900 199L799 161L779 302Z" fill="#0c2435" stroke="#0c2435"></path><path d="M308 0L237 0L268 71Z" fill="#205a7a" stroke="#205a7a"></path><path d="M285 600L387 600L337 490Z" fill="#277297" stroke="#277297"></path><path d="M799 161L770 80L707 106Z" fill="#297ea6" stroke="#297ea6"></path><path d="M485 600L621 600L507 538Z" fill="#0c2435" stroke="#0c2435"></path><path d="M611 531L719 600L706 471Z" fill="#1d4e6b" stroke="#1d4e6b"></path><path d="M900 496L900 401L784 382Z" fill="#081a28" stroke="#081a28"></path><path d="M171 198L97 290L170 337Z" fill="#205a7a" stroke="#205a7a"></path><path d="M170 337L92 422L202 413Z" fill="#19435d" stroke="#19435d"></path><path d="M84 233L97 290L171 198Z" fill="#0c2435" stroke="#0c2435"></path><path d="M164 600L285 600L229 491Z" fill="#0c2435" stroke="#0c2435"></path><path d="M229 491L285 600L337 490Z" fill="#246688" stroke="#246688"></path><path d="M91 91L84 233L171 198Z" fill="#205a7a" stroke="#205a7a"></path><path d="M0 278L92 422L97 290Z" fill="#112e42" stroke="#112e42"></path><path d="M97 290L92 422L170 337Z" fill="#297ea6" stroke="#297ea6"></path><path d="M182 76L91 91L171 198Z" fill="#297ea6" stroke="#297ea6"></path><path d="M82 0L91 91L182 76Z" fill="#1d4e6b" stroke="#1d4e6b"></path><path d="M92 422L108 467L202 413Z" fill="#1d4e6b" stroke="#1d4e6b"></path><path d="M621 600L719 600L611 531Z" fill="#246688" stroke="#246688"></path><path d="M900 401L900 307L784 382Z" fill="#112e42" stroke="#112e42"></path><path d="M784 382L900 307L779 302Z" fill="#112e42" stroke="#112e42"></path><path d="M900 124L821 0L770 80Z" fill="#0c2435" stroke="#0c2435"></path><path d="M900 307L900 199L779 302Z" fill="#297ea6" stroke="#297ea6"></path><path d="M900 124L770 80L799 161Z" fill="#246688" stroke="#246688"></path><path d="M770 80L821 0L671 0Z" fill="#297ea6" stroke="#297ea6"></path><path d="M900 199L900 124L799 161Z" fill="#0c2435" stroke="#0c2435"></path><path d="M836 531L784 382L706 471Z" fill="#297ea6" stroke="#297ea6"></path><path d="M719 600L836 531L706 471Z" fill="#277297" stroke="#277297"></path><path d="M108 467L164 600L229 491Z" fill="#00101c" stroke="#00101c"></path><path d="M237 0L82 0L182 76Z" fill="#277297" stroke="#277297"></path><path d="M0 229L0 278L84 233Z" fill="#081a28" stroke="#081a28"></path><path d="M0 501L108 600L108 467Z" fill="#15384f" stroke="#15384f"></path><path d="M108 467L108 600L164 600Z" fill="#297ea6" stroke="#297ea6"></path><path d="M84 233L0 278L97 290Z" fill="#297ea6" stroke="#297ea6"></path><path d="M0 229L84 233L91 91Z" fill="#297ea6" stroke="#297ea6"></path><path d="M0 83L0 229L91 91Z" fill="#081a28" stroke="#081a28"></path><path d="M900 600L900 496L836 531Z" fill="#277297" stroke="#277297"></path><path d="M836 531L900 496L784 382Z" fill="#15384f" stroke="#15384f"></path><path d="M719 600L832 600L836 531Z" fill="#246688" stroke="#246688"></path><path d="M0 437L108 467L92 422Z" fill="#0c2435" stroke="#0c2435"></path><path d="M0 278L0 437L92 422Z" fill="#081a28" stroke="#081a28"></path><path d="M82 0L0 83L91 91Z" fill="#246688" stroke="#246688"></path><path d="M900 124L900 0L821 0Z" fill="#19435d" stroke="#19435d"></path><path d="M0 437L0 501L108 467Z" fill="#0c2435" stroke="#0c2435"></path><path d="M82 0L0 0L0 83Z" fill="#081a28" stroke="#081a28"></path><path d="M832 600L900 600L836 531Z" fill="#19435d" stroke="#19435d"></path><path d="M0 501L0 600L108 600Z" fill="#246688" stroke="#246688"></path></g></svg>